<svg width="428" height="926" viewBox="0 0 428 926" fill="none" xmlns="http://www.w3.org/2000/svg">
<g clip-path="url(#clip0_4:194)">
<rect width="428" height="926" fill="white"/>
<rect width="428" height="926" fill="url(#paint0_linear_4:194)"/>
<path d="M47.7566 87.3929C47.7566 108.163 23.182 125 2.12576 125C-18.9305 125 -36 108.163 -36 87.3929C-36 66.6231 -11.4254 49.7858 9.63083 49.7858C30.6871 49.7858 47.7566 66.6231 47.7566 87.3929Z" fill="#F8FAFC"/>
<ellipse cx="69.9716" cy="87.3929" rx="42.0284" ry="37.6071" fill="#F8FAFC"/>
<ellipse cx="36.3489" cy="63.6071" rx="46.2312" ry="37.6071" fill="#F8FAFC"/>
<path d="M48.8722 263.37C48.8722 279.734 27.7846 293 9.71602 293C-8.35254 293 -23 279.734 -23 263.37C-23 247.006 -1.91237 233.74 16.1562 233.74C34.2247 233.74 48.8722 247.006 48.8722 263.37Z" fill="#F8FAFC"/>
<ellipse cx="67.9351" cy="263.37" rx="36.0649" ry="29.6299" fill="#F8FAFC"/>
<ellipse cx="39.0832" cy="244.63" rx="39.6714" ry="29.6299" fill="#F8FAFC"/>
<path d="M363.757 201.393C363.757 222.163 339.182 239 318.126 239C297.069 239 280 222.163 280 201.393C280 180.623 304.575 163.786 325.631 163.786C346.687 163.786 363.757 180.623 363.757 201.393Z" fill="#F8FAFC"/>
<ellipse cx="385.972" cy="201.393" rx="42.0284" ry="37.6071" fill="#F8FAFC"/>
<ellipse cx="352.349" cy="177.607" rx="46.2312" ry="37.6071" fill="#F8FAFC"/>
<path d="M407.103 20.6494C407.103 35.7547 392.99 48 380.897 48C368.803 48 359 35.7547 359 20.6494C359 5.54401 373.114 -6.70129 385.207 -6.70129C397.3 -6.70129 407.103 5.54401 407.103 20.6494Z" fill="#F8FAFC"/>
<ellipse cx="419.862" cy="20.6494" rx="24.1379" ry="27.3506" fill="#F8FAFC"/>
<path d="M431.365 -5.81818C431.365 9.28716 415.216 30.7013 400.552 30.7013C385.888 30.7013 374 18.456 374 3.35065C374 -11.7547 385.888 -24 400.552 -24C415.216 -24 431.365 -20.9235 431.365 -5.81818Z" fill="#F8FAFC"/>
<path d="M129.467 178.06C129.467 184.654 121.995 190 115.592 190C109.19 190 104 184.654 104 178.06C104 171.466 111.472 166.121 117.874 166.121C124.276 166.121 129.467 171.466 129.467 178.06Z" fill="#F8FAFC"/>
<ellipse cx="136.221" cy="178.06" rx="12.7789" ry="11.9396" fill="#F8FAFC"/>
<path d="M136.3 170.94C136.3 177.534 133.761 182.448 125.998 182.448C118.235 182.448 111.941 177.103 111.941 170.509C111.941 163.915 114.48 159 122.243 159C130.007 159 136.3 164.346 136.3 170.94Z" fill="#F8FAFC"/>
<path d="M270.824 112.425C270.824 121.027 261.193 128 252.941 128C244.689 128 238 121.027 238 112.425C238 103.824 247.631 96.8506 255.882 96.8506C264.134 96.8506 270.824 103.824 270.824 112.425Z" fill="#F8FAFC"/>
<ellipse cx="279.529" cy="112.425" rx="16.4706" ry="15.5747" fill="#F8FAFC"/>
<ellipse cx="266.353" cy="102.575" rx="18.1176" ry="15.5747" fill="#F8FAFC"/>
<path d="M212.757 18.3928C212.757 39.1627 188.182 56 167.126 56C146.069 56 129 39.1627 129 18.3928C129 -2.377 153.575 -19.2143 174.631 -19.2143C195.687 -19.2143 212.757 -2.377 212.757 18.3928Z" fill="#F8FAFC"/>
<ellipse cx="234.972" cy="18.3928" rx="42.0284" ry="37.6071" fill="#F8FAFC"/>
<ellipse cx="201.349" cy="-5.39286" rx="46.2312" ry="37.6071" fill="#F8FAFC"/>
</g>
<defs>
<linearGradient id="paint0_linear_4:194" x1="214" y1="0" x2="214" y2="926" gradientUnits="userSpaceOnUse">
<stop stop-color="#BD6DCB"/>
<stop offset="1" stop-color="#BD6DCB" stop-opacity="0"/>
</linearGradient>
<clipPath id="clip0_4:194">
<rect width="428" height="926" fill="white"/>
</clipPath>
</defs>
</svg>
